# xmcd CD database file
#
# Track frame offsets:
#	150
#	16613
#	33295
#	65453
#	103461
#	161458
#
# Disc length: 2701 seconds
#
# Revision: 0
# Processed by: cddbd v1.5.2PL0 Copyright (c) Steve Scherf et al.
# Submitted via: CDex 1.70beta2
#
DISCID=410a8b06
DTITLE=DJ Tiesto and Junkie XL - Obsession
DYEAR=2002
DGENRE=New Age
TTITLE0=Obsession Radio edit 1
TTITLE1=Obsession Radio edit 2
TTITLE2=Obsession frank biazzi mix
TTITLE3=Obsession filterheadz remix
TTITLE4=Obsession nubreed remix
TTITLE5=Obsession original version
EXTD=YEAR: 2002
EXTT0=
EXTT1=
EXTT2=
EXTT3=
EXTT4=
EXTT5=
PLAYORDER=
